<?xml version="1.0" encoding="UTF-8" standalone="no"?>
<svg
   xmlns:dc="http://purl.org/dc/elements/1.1/"
   xmlns:cc="http://creativecommons.org/ns#"
   xmlns:rdf="http://www.w3.org/1999/02/22-rdf-syntax-ns#"
   xmlns:svg="http://www.w3.org/2000/svg"
   xmlns="http://www.w3.org/2000/svg"
   xmlns:sodipodi="http://sodipodi.sourceforge.net/DTD/sodipodi-0.dtd"
   xmlns:inkscape="http://www.inkscape.org/namespaces/inkscape"
   id="Layer_1"
   data-name="Layer 1"
   viewBox="0 0 2280 2280"
   version="1.1"
   sodipodi:docname="tib-logo-square.svg"
   inkscape:version="0.92.2 (5c3e80d, 2017-08-06)">
  <metadata
     id="metadata13">
    <rdf:RDF>
      <cc:Work
         rdf:about="">
        <dc:format>image/svg+xml</dc:format>
        <dc:type
           rdf:resource="http://purl.org/dc/dcmitype/StillImage" />
        <dc:title>splash_Cloud_Live-apps_color_square2</dc:title>
      </cc:Work>
    </rdf:RDF>
  </metadata>
  <defs
     id="defs11" />
  <sodipodi:namedview
     pagecolor="#ffffff"
     bordercolor="#666666"
     borderopacity="1"
     objecttolerance="10"
     gridtolerance="10"
     guidetolerance="10"
     inkscape:pageopacity="0"
     inkscape:pageshadow="2"
     inkscape:window-width="2400"
     inkscape:window-height="1271"
     id="namedview9"
     showgrid="false"
     inkscape:zoom="0.29276702"
     inkscape:cx="1090.6549"
     inkscape:cy="625.1781"
     inkscape:window-x="-9"
     inkscape:window-y="-9"
     inkscape:window-maximized="1"
     inkscape:current-layer="Layer_1" />
  <title
     id="title2">splash_Cloud_Live-apps_color_square2</title>
  <path
     d="M667.95,1176.07l-41.81-72.44,41.81-72.5h83.69l41.81,72.5-41.81,72.44Zm688.7,70.22h175.73l87.8-152.12-87.8-152.26H1356.65l-87.8,152.26Zm-174.21-107.2L1324,893.88,1182.44,648.44H899.16L757.64,893.88l141.52,245.21Zm511.72,208.83v2.37h6.48v16.14h2.47v-16.14h6.48v-2.59h-15.42Zm37,18.28-.59-18.51h-3.29l-5.65,15.21-5.68-15.21h-3.34l-.62,18.51h0v.23h2.45l.21-15.43,5.65,15.15h2.52l5.62-15.12.19,15.4h2.53v-.23Zm-1182.39,2.14h0v18.17h35.38v93.38h19.76v-.23h0V1386.5h35.38v-.24h0V1368.1H548.81Zm112.35,0v111.55h19.6V1368.1h-19.6Zm142.3,80.61v.34c0,19.92-16.41,30.6-41.27,30.6H710.56v-.23h0V1368.1h50c12.75,0,22.79,3.5,29.16,9.88a25,25,0,0,1,7.49,18.48v.56c0,13.25-7.5,20.4-15.69,24.72,12.93,4.47,21.9,12,21.9,27Zm-73.62-33.83h26.77c12.59,0,21-4.94,21-15.14v-.15c0-8.73-7-14.12-19.6-14.12h-28.2Zm54,31.79c0-9.4-7.49-15-22.95-15H729.84v30.36h32.51c13.38,0,21.5-5.25,21.51-15.28Zm126.22,2.15c-9.56,8.93-18.33,14.34-32,14.34-21.34,0-36.79-17.66-36.81-39.47v-.13c0-21.83,15.62-39.36,36.81-39.36,12.75,0,22.31,5.57,31.24,13.87l12.59-14.5-.12-.1.11-.13c-10.67-10.2-23.11-17.37-43.66-17.37-33.78,0-57.53,26-57.53,57.69v.19s0,0,0,0v.32c0,32,24.22,57.37,56.73,57.37,20.88,0,33.62-7.65,45.26-19.76l-.12-.12.12-.12Zm141.67-25.5v.19s0,0,0,0v.32c0,31.39-24.22,57.69-58.49,57.69s-58.17-26-58.17-57.37v-.32s0,0,0,0v-.19c0-31.4,24.22-57.69,58.48-57.69S1051.74,1392.16,1051.74,1423.56Zm-20.56.56c0-21.68-15.78-39.68-37.93-39.68s-37.58,17.66-37.61,39.31v.14c0,21.67,15.78,39.52,37.92,39.52s37.59-17.5,37.61-39.15Zm176.57,24.94c-9.56,8.93-18.33,14.34-32,14.34-21.36,0-36.82-17.69-36.82-39.52v-.08c0-21.83,15.62-39.36,36.81-39.36,12.75,0,22.31,5.57,31.24,13.87l12.59-14.5-.12-.1.12-.13c-10.67-10.2-23.11-17.37-43.66-17.37-33.78,0-57.53,26-57.53,57.69v.15s0,.06,0,.09v.32c0,32,24.22,57.37,56.73,57.37,20.88,0,33.62-7.65,45.26-19.76l-.11-.12.12-.12Zm33.14-81v.23h0v111.55h78.24v-.23h0V1461.8H1260.5v-93.7Zm204,55.6s0,.06,0,.09v.32c0,31.39-24.22,57.69-58.49,57.69s-58.17-26-58.17-57.37v-.55c0-31.4,24.22-57.69,58.48-57.69s58.17,26,58.17,57.37Zm-20.55.41c0-21.68-15.78-39.68-37.93-39.68s-37.61,17.69-37.61,39.36v.08c0,21.67,15.78,39.52,37.92,39.52s37.61-17.53,37.61-39.2Zm118.41-55.78v64c0,20.56-10.68,30.92-28,30.92-17.53,0-28.21-11-28.21-31.72V1368.1h-19.6v64.46c0,32.35,18.49,49.08,47.49,49.08,29.17,0,48-16.73,48-50v-63.5h-19.6Zm147.41,55.41s0,0,0,0v.32c0,31.39-24.23,55.78-59.28,55.78h-41.59v-.24h0V1368.1h41.59c35.06,0,59.28,24.06,59.28,55.45Zm-20.56.32c0-21.81-15.31-37.88-38.72-37.88h-22v75.62h22c23.43,0,38.73-15.78,38.73-37.61Zm-396.3-744.92h4.1V652.36h10.74v-3.93h-25.58v3.93h10.74Zm23.3-25.6,9.38,25.14h4.18l9.33-25.09.32,25.54h4.2l-1-30.71h-5.45l-9.37,25.25-9.43-25.25h-5.54l-1,30.71h4.07Z"
     style="fill:#00a9d7"
     id="path6"
     inkscape:export-xdpi="120"
     inkscape:export-ydpi="120" />
  <path
     inkscape:connector-curvature="0"
     d="m 808.18393,1656.5307 h 55.84624 v 10.3499 h -67.04556 v -99.2154 h 11.19931 z m 74.98282,-78.9214 h 12.47713 v -12.0261 h -12.47713 z m 0.70654,89.3014 h 10.91369 v -73.2841 h -10.91369 z m 65.77529,-12.4771 -24.6686,-60.807 h -12.0261 l 31.749,73.8478 h 9.6359 l 31.8917,-73.8478 h -11.7705 z m 114.24802,-23.6689 a 28.389129,28.389129 0 0 1 -0.1428,3.5402 h -58.1162 c 1.5634,15.8745 12.7778,24.8039 25.796,24.8039 10.0644,0 17.1523,-4.1115 23.1052,-10.35 l 6.8023,6.0957 c -7.3735,8.2229 -16.3029,13.7474 -30.1931,13.7474 -20.1287,0 -36.57443,-15.4536 -36.57443,-38.1303 v -0.2856 c 0,-21.1209 14.88233,-38.1303 35.15383,-38.1303 21.6921,-0.015 34.1617,17.2725 34.1617,38.679 z m -11.0565,-4.5098 c -1.135,-13.3264 -8.7866,-24.9466 -23.3908,-24.9466 -12.7777,0 -22.3986,10.6356 -23.8117,24.9466 z m 121.7643,-59.2511 45.2182,99.967 h -12.0261 l -11.6202,-26.2244 h -54.0048 l -11.7705,26.2244 h -11.4849 l 45.2181,-99.967 z m 17.1523,63.5054 -22.549,-50.4571 -22.6767,50.4571 z m 119.78,-0.4209 v 0.2856 c 0,23.9545 -17.2875,38.1302 -35.011,38.1302 -13.6045,0 -22.3911,-7.3735 -28.0659,-15.5963 v 36.7172 h -10.9212 v -96.0285 h 10.9137 v 14.7395 c 5.9529,-8.7865 14.5966,-16.3029 28.0659,-16.3029 17.5806,0.01 35.011,13.8977 35.011,37.995 z m -11.1993,0.1428 c 0,-17.2876 -11.9059,-28.3516 -25.796,-28.3516 -13.6121,0 -26.5101,11.4849 -26.5101,28.2088 v 0.2856 c 0,17.0094 12.898,28.3515 26.5101,28.3515 14.1758,0 25.796,-10.5228 25.796,-28.2087 z m 105.3186,-0.1428 v 0.2856 c 0,23.9545 -17.2875,38.1302 -35.011,38.1302 -13.6045,0 -22.3911,-7.3735 -28.0659,-15.5963 v 36.7172 h -10.9137 v -96.0285 h 10.9137 v 14.7395 c 5.9529,-8.7865 14.5967,-16.3029 28.0659,-16.3029 17.5732,0.01 35.0035,13.8977 35.0035,37.995 z m -11.1993,0.1428 c 0,-17.2876 -11.9058,-28.3516 -25.796,-28.3516 -13.612,0 -26.51,11.4849 -26.51,28.2088 v 0.2856 c 0,17.0094 12.898,28.3515 26.51,28.3515 14.1758,0 25.796,-10.5228 25.796,-28.2087 z m 58.1162,-5.1036 c -9.7712,-3.0065 -18.8509,-5.6673 -18.8509,-12.6199 v -0.2856 c 0,-6.0958 5.5244,-10.6356 14.1757,-10.6356 7.0879,0 14.8823,2.6983 21.6921,7.0879 l 4.9608,-8.2229 a 50.096252,50.096252 0 0 0 -26.3673,-8.08 c -14.4613,0 -24.9466,8.3656 -24.9466,20.978 v 0.2856 c 0,13.4618 12.7777,17.4304 24.2401,20.6925 9.6359,2.6983 18.2872,5.532 18.2872,12.898 v 0.2856 c 0,7.0879 -6.3813,11.6202 -15.1679,11.6202 -8.6438,0 -17.4304,-3.4049 -25.3751,-9.3578 l -5.5245,7.7944 a 50.404421,50.404421 0 0 0 30.3359,10.7709 c 14.5966,0 26.0816,-8.08 26.0816,-21.9702 v -0.2856 c -0.015,-13.1912 -12.199,-17.6183 -23.5411,-21.0156 z"
     style="fill:#333333;stroke-width:0.75163168"
     id="path4"
     inkscape:export-xdpi="120"
     inkscape:export-ydpi="120" />
</svg>
