<svg xmlns="http://www.w3.org/2000/svg" width="100%" height="100%" viewBox="0 0 336 24">
    <g fill="none" fill-rule="nonzero">
        <path fill="#333" d="M222.897 18.41h9.457v1.766H221V3.36h1.897v15.05zM235.61 5.041h2.119V3h-2.12v2.041zm.12 15.12h1.847V7.754h-1.847v12.409zm11.139-2.118l-4.196-10.29h-2.041l5.375 12.504h1.632l5.4-12.504h-1.992l-4.178 10.29zm19.329-3.987c.004.2-.004.401-.025.6h-9.843c.265 2.688 2.162 4.2 4.37 4.2 1.499.01 2.928-.635 3.912-1.767l1.152 1.032a6.407 6.407 0 0 1-5.121 2.327c-3.409 0-6.195-2.617-6.195-6.455v-.05c0-3.577 2.522-6.455 5.954-6.455 3.684 0 5.796 2.928 5.796 6.568zm-1.872-.766c-.19-2.257-1.487-4.238-3.959-4.238-2.161 0-3.793 1.801-4.033 4.238h7.992zm20.618-10.032l7.657 16.918h-2.041l-1.967-4.439h-9.144l-1.992 4.439h-1.946l7.657-16.918h1.776zm2.893 10.735l-3.804-8.542-3.842 8.542h7.646zm20.283-.071v.05c0 4.057-2.928 6.454-5.93 6.454-2.303 0-3.793-1.246-4.754-2.64V24h-1.83V7.757h1.848v2.496c1.006-1.487 2.472-2.761 4.753-2.761 2.97-.004 5.923 2.348 5.923 6.43h-.01zm-1.897.025c0-2.928-2.017-4.8-4.369-4.8s-4.481 1.943-4.481 4.775v.05c0 2.88 2.182 4.798 4.488 4.798 2.402 0 4.37-1.765 4.37-4.777l-.008-.046zm17.835-.025v.05c0 4.057-2.928 6.454-5.93 6.454-2.302 0-3.793-1.246-4.753-2.64V24h-1.847V7.757h1.847v2.496c1.006-1.487 2.472-2.761 4.753-2.761 2.988-.004 5.94 2.348 5.94 6.43h-.01zm-1.896.025c0-2.928-2.017-4.8-4.369-4.8s-4.489 1.946-4.489 4.779v.049c0 2.881 2.183 4.799 4.489 4.799 2.402 0 4.369-1.766 4.369-4.778v-.05zm9.843-.865c-1.657-.505-3.179-.96-3.179-2.12v-.049c0-1.03.936-1.8 2.402-1.8a7.018 7.018 0 0 1 3.673 1.2l.84-1.391a8.477 8.477 0 0 0-4.464-1.384c-2.447 0-4.238 1.412-4.238 3.552v.05c0 2.28 2.161 2.951 4.104 3.502 1.632.456 3.097.936 3.097 2.183v.056c0 1.2-1.08 1.967-2.567 1.967a7.255 7.255 0 0 1-4.28-1.593l-.937 1.321a8.537 8.537 0 0 0 5.125 1.836c2.472 0 4.418-1.366 4.418-3.718v-.05c0-2.235-2.066-2.987-3.984-3.562h-.01z"/>
        <path fill="#00A9D7" d="M210.415 0h2.328v.357h-.976v2.457h-.372V.357h-.976L210.415 0zm5.001 0l-.852 2.318L213.708 0h-.491l-.092 2.818h.353l.032-2.35.852 2.307h.379l.849-2.304.028 2.347H216L215.912 0h-.496zM37.656 5.879h5.337v14.225h2.981V5.879h5.337V3.11H37.66l-.003 2.768zM54.6 20.104h2.957V3.11H54.6v16.993zm21.465-4.708v.05c0 3.033-2.476 4.643-6.225 4.643h-7.78V3.111h7.547c1.924 0 3.438.532 4.4 1.503a3.827 3.827 0 0 1 1.128 2.815v.05c0 2.039-1.153 3.132-2.405 3.785 1.966.682 3.335 1.822 3.335 4.129v.003zM64.96 10.275h4.038c1.9 0 3.184-.754 3.184-2.307v-.05c0-1.336-1.061-2.143-2.957-2.143H64.98l-.021 4.5zm8.134 4.807c0-1.428-1.128-2.282-3.462-2.282H64.96v4.643h4.901c2.02 0 3.247-.8 3.247-2.332l-.014-.029zm14.214 2.543c-3.222 0-5.552-2.693-5.552-6.021v-.05c0-3.325 2.355-5.997 5.552-5.997 1.924 0 3.364.85 4.711 2.11l1.9-2.206c-1.61-1.554-3.484-2.647-6.586-2.647-5.096 0-8.676 3.957-8.676 8.786v.05c0 4.879 3.654 8.74 8.556 8.74 3.147 0 5.071-1.165 6.826-3.011l-1.9-1.943c-1.435 1.35-2.755 2.189-4.83 2.189zm26.2-6.071v.05c0 4.782-3.653 8.785-8.82 8.785s-8.768-3.96-8.768-8.735v-.047c0-4.782 3.654-8.786 8.82-8.786 5.168 0 8.776 3.965 8.776 8.736l-.008-.003zm-3.101.05c0-3.3-2.38-6.043-5.723-6.043-3.342 0-5.659 2.693-5.659 5.996v.05c0 3.3 2.38 6.022 5.723 6.022 3.342 0 5.659-2.672 5.659-5.972v-.053zm21.818 6.021c-3.222 0-5.553-2.693-5.553-6.021v-.05c0-3.325 2.356-5.997 5.553-5.997 1.924 0 3.363.85 4.71 2.11l1.9-2.206c-1.62-1.532-3.494-2.64-6.61-2.64-5.096 0-8.676 3.958-8.676 8.786v.05c0 4.879 3.654 8.74 8.556 8.74 3.147 0 5.071-1.165 6.826-3.011l-1.9-1.943c-1.425 1.343-2.748 2.182-4.806 2.182zm12.789-14.514h-2.957V20.1h11.802v-2.718h-8.842l-.003-14.271zm27.81 8.446v.05c0 4.782-3.654 8.786-8.821 8.786-5.168 0-8.79-3.964-8.79-8.74v-.046c0-4.782 3.654-8.786 8.822-8.786 5.167 0 8.781 3.965 8.781 8.736h.007zm-3.11.05c0-3.3-2.38-6.043-5.722-6.043-3.342 0-5.659 2.693-5.659 5.997v.05c0 3.3 2.38 6.021 5.72 6.021 3.338 0 5.658-2.671 5.658-5.971l.004-.054zm17.861 1.286c0 3.132-1.61 4.71-4.244 4.71-2.635 0-4.244-1.674-4.244-4.832V3.13h-2.957v9.764c0 4.928 2.787 7.475 7.162 7.475s7.236-2.55 7.236-7.622V3.104h-2.953v9.789zm22.236-1.336v.05c0 4.782-3.654 8.497-8.941 8.497h-6.278V3.11h6.274c5.277 0 8.941 3.675 8.941 8.446h.004zm-3.102.05c0-3.325-2.306-5.775-5.843-5.775h-3.317v11.554h3.317c3.537 0 5.843-2.404 5.843-5.715v-.064zM1.316 14.164L0 16.468l1.316 2.3H3.95l1.305-2.3-1.316-2.304H1.316zm21.67-2.835l-2.763 4.839L22.985 21h5.532l2.762-4.832-2.762-4.84h-5.532zm-5.483-9.325H8.591l-4.453 7.8 4.453 7.792h8.912l4.453-7.792-4.453-7.8zm7.866.814h.371V.358h.977V0h-2.328v.357h.977l.003 2.46zm2.122-2.35l.853 2.307h.378l.849-2.304.028 2.347h.382L29.893 0h-.496l-.852 2.318L27.685 0h-.502l-.091 2.818h.353l.046-2.35z"/>
    </g>
</svg>
